<?xml version="1.0" encoding="UTF-8"?>
<svg xmlns="http://www.w3.org/2000/svg" xmlns:xlink="http://www.w3.org/1999/xlink" version="1.2" >
<font id="Enrique Demo">
<font-face  font-family="Enrique" units-per-em="1000" ascent="763" descent="-200" font-style="normal" font-weight="400" font-stretch="normal" cap-height="698" x-height="697" underline-position="0" underline-thickness="0" />
<missing-glyph  horiz-adv-x="500" d="" />
<glyph glyph-name="NULL" d="" />
<glyph glyph-name="&amp;#x0;" d="" />
<glyph glyph-name="&amp;#xd;" unicode="&#xd;" d="" />
<glyph glyph-name="space" unicode="&#x20;" horiz-adv-x="311" d="" />
<glyph glyph-name="controlLF" unicode="&#xa;" d="" />
<glyph glyph-name="zero" unicode="0" horiz-adv-x="647" d="M50 355 C50 120 143 -2 324 -2 C505 -2 598 120 598 355 C598 580 497 712 325 712 C153 712 52 580 52 355 L50 355 L50 355 Z M155 355 C155 529 218 631 325 631 C432 631 495 529 495 355 C495 173 437 79 324 79 C211 79 153 173 153 355 L155 355 L155 355 Z " />
<glyph glyph-name="one" unicode="1" horiz-adv-x="346" d="M296 57 L296 667 C296 687 278 705 258 705 L242 705 C233 705 209 695 202 688 L67 556 C60 549 50 524 50 515 L50 479 C50 455 76 444 93 461 L124 492 C152 521 197 502 197 462 L197 58 C197 30 219 8 247 8 C274 8 296 30 296 58 L296 57 L296 57 Z " />
<glyph glyph-name="two" unicode="2" horiz-adv-x="571" d="M105 6 L474 6 C500 6 521 27 521 53 C521 79 500 100 474 100 L205 100 C183 100 172 116 182 136 C209 189 258 228 334 275 C438 338 507 424 507 490 C507 623 417 712 282 712 C147 712 57 628 57 503 C57 460 69 414 88 381 C95 370 105 369 116 375 L172 403 C179 407 181 418 176 425 C162 448 153 478 153 502 C153 578 205 629 282 629 C357 629 407 575 407 495 C407 443 331 361 217 291 C111 227 62 174 51 58 C48 24 71 4 105 4 L105 6 L105 6 Z " />
<glyph glyph-name="three" unicode="3" horiz-adv-x="565" d="M51 183 C71 70 158 -3 281 -3 C422 -3 515 78 515 200 C515 274 473 338 405 373 C396 378 399 396 408 402 C456 430 487 477 487 532 C487 640 405 713 282 713 C177 713 102 653 82 561 C75 528 94 508 127 508 L140 508 C156 508 176 528 180 544 C191 597 228 630 278 630 C348 630 395 587 395 523 C395 459 348 416 277 416 L240 416 C220 416 203 399 203 379 L203 368 C203 352 215 340 231 340 L259 340 C349 340 409 285 409 203 C409 132 359 85 283 85 C218 85 171 126 157 189 C152 208 127 233 108 233 L101 233 C68 233 48 215 55 182 L51 183 L51 183 Z " />
<glyph glyph-name="four" unicode="4" horiz-adv-x="612" d="M50 279 L50 261 C50 240 68 222 88 222 L133 223 L303 223 C334 223 360 197 360 166 L360 55 C360 28 382 6 409 6 C436 6 458 28 458 55 L458 171 C458 199 481 222 510 222 L517 222 C541 222 561 242 561 266 C561 290 541 310 517 310 L510 310 C481 310 458 333 458 362 L458 665 C458 685 440 703 420 703 L408 703 C397 703 371 691 364 682 L62 314 C57 308 49 285 49 278 L50 279 L50 279 Z M217 391 L349 552 C355 558 364 554 363 547 L360 524 L360 368 C360 337 334 311 303 311 L255 311 C210 311 188 358 217 392 L217 391 L217 391 Z " />
<glyph glyph-name="five" unicode="5" horiz-adv-x="565" d="M483 633 L485 657 C486 683 466 704 440 704 L159 704 C130 704 104 681 101 651 L80 380 C78 353 98 326 125 319 L146 314 C156 311 184 319 191 326 C224 355 259 374 287 374 C359 374 407 314 407 224 C407 141 357 85 281 85 C216 85 169 126 155 189 C150 208 125 233 106 233 L99 233 C66 233 46 215 53 182 C73 69 160 -4 283 -4 C424 -4 517 87 517 223 C517 362 433 455 308 455 C274 455 236 442 203 422 C196 417 185 422 186 431 L199 558 C202 587 227 610 256 609 L437 608 L461 607 C474 607 485 617 486 630 L483 633 L483 633 Z " />
<glyph glyph-name="six" unicode="6" horiz-adv-x="583" d="M486 629 C441 680 372 713 303 713 C135 713 49 568 49 351 C49 118 133 -2 297 -2 C438 -2 532 93 532 234 C532 373 445 466 313 466 C259 466 206 436 172 389 C167 382 153 385 153 393 C159 537 208 635 303 635 C344 635 388 611 420 573 C428 562 451 556 463 563 L476 571 C499 586 503 608 485 628 L486 629 L486 629 Z M294 384 C373 384 425 324 425 234 C425 141 374 79 297 79 C226 79 180 134 161 241 C161 245 163 258 164 262 C188 336 238 385 293 385 L294 384 L294 384 Z " />
<glyph glyph-name="seven" unicode="7" horiz-adv-x="519" d="M50 657 C50 631 71 610 97 610 L265 610 C308 610 330 556 303 523 C202 396 155 257 148 65 C147 34 170 6 202 6 C231 6 257 40 258 69 C266 306 321 457 446 587 C453 594 469 626 469 634 L469 657 C469 683 448 704 422 704 L98 704 C72 704 51 683 51 657 L50 657 L50 657 Z " />
<glyph glyph-name="eight" unicode="8" horiz-adv-x="576" d="M76 531 C76 471 99 424 147 395 C156 389 156 369 147 364 C86 334 50 278 50 193 C50 75 124 -4 289 -4 C431 -4 526 57 526 193 C526 271 494 332 425 365 C416 369 417 387 425 393 C471 420 498 465 498 530 C498 639 426 712 287 712 C160 712 76 651 76 531 L76 531 Z M154 202 C154 293 207 334 287 334 C378 334 419 282 419 203 C419 117 366 78 287 78 C195 78 154 127 154 201 L154 202 L154 202 Z M168 522 C168 594 216 630 288 630 C366 630 406 587 406 522 C406 452 359 421 288 421 C205 421 168 461 168 521 L168 522 L168 522 Z " />
<glyph glyph-name="nine" unicode="9" horiz-adv-x="583" d="M97 82 C142 31 211 -2 280 -2 C448 -2 534 143 534 360 C534 593 450 713 286 713 C145 713 51 618 51 477 C51 338 138 245 270 245 C324 245 377 275 411 322 C416 329 430 326 430 318 C424 174 375 76 280 76 C239 76 195 100 163 138 C155 149 132 155 120 148 L107 140 C84 125 80 103 98 83 L97 82 L97 82 Z M289 327 C210 327 158 387 158 477 C158 570 209 632 286 632 C357 632 403 577 422 470 C422 466 420 453 419 449 C395 375 345 326 290 326 L289 327 L289 327 Z " />
<glyph glyph-name="A" unicode="A" horiz-adv-x="728" d="M289 652 L53 51 C43 25 60 1 88 1 L129 1 C135 1 143 7 146 14 L151 25 L158 45 L307 434 C327 485 394 485 414 434 L457 320 C473 280 447 243 404 243 L274 243 C254 243 229 225 222 206 L222 205 C215 185 227 166 247 166 L478 166 C498 166 524 148 531 128 L563 45 C563 45 566 36 572 22 L577 11 C580 4 588 -2 594 -2 L665 -2 C678 -2 685 9 680 20 L672 42 L434 659 C427 678 402 696 382 696 L325 696 C319 696 311 690 308 684 L303 672 C302 670 294 649 294 649 L289 652 L289 652 Z " />
<glyph glyph-name="&amp;#xc0;" unicode="&#xc0;" horiz-adv-x="728" d="M289 652 L53 51 C43 25 60 1 88 1 L129 1 C135 1 143 7 146 14 L151 25 L158 45 L307 434 C327 485 394 485 414 434 L457 320 C473 280 447 243 404 243 L274 243 C254 243 229 225 222 206 L222 205 C215 185 227 166 247 166 L478 166 C498 166 524 148 531 128 L563 45 C563 45 566 36 572 22 L577 11 C580 4 588 -2 594 -2 L665 -2 C678 -2 685 9 680 20 L672 42 L434 659 C427 678 402 696 382 696 L325 696 C319 696 311 690 308 684 L303 672 C302 670 294 649 294 649 L289 652 L289 652 Z " />
<glyph glyph-name="&amp;#xc1;" unicode="&#xc1;" horiz-adv-x="728" d="M289 652 L53 51 C43 25 60 1 88 1 L129 1 C135 1 143 7 146 14 L151 25 L158 45 L307 434 C327 485 394 485 414 434 L457 320 C473 280 447 243 404 243 L274 243 C254 243 229 225 222 206 L222 205 C215 185 227 166 247 166 L478 166 C498 166 524 148 531 128 L563 45 C563 45 566 36 572 22 L577 11 C580 4 588 -2 594 -2 L665 -2 C678 -2 685 9 680 20 L672 42 L434 659 C427 678 402 696 382 696 L325 696 C319 696 311 690 308 684 L303 672 C302 670 294 649 294 649 L289 652 L289 652 Z " />
<glyph glyph-name="&amp;#xc2;" unicode="&#xc2;" horiz-adv-x="728" d="M289 652 L53 51 C43 25 60 1 88 1 L129 1 C135 1 143 7 146 14 L151 25 L158 45 L307 434 C327 485 394 485 414 434 L457 320 C473 280 447 243 404 243 L274 243 C254 243 229 225 222 206 L222 205 C215 185 227 166 247 166 L478 166 C498 166 524 148 531 128 L563 45 C563 45 566 36 572 22 L577 11 C580 4 588 -2 594 -2 L665 -2 C678 -2 685 9 680 20 L672 42 L434 659 C427 678 402 696 382 696 L325 696 C319 696 311 690 308 684 L303 672 C302 670 294 649 294 649 L289 652 L289 652 Z " />
<glyph glyph-name="&amp;#xc3;" unicode="&#xc3;" horiz-adv-x="728" d="M289 652 L53 51 C43 25 60 1 88 1 L129 1 C135 1 143 7 146 14 L151 25 L158 45 L307 434 C327 485 394 485 414 434 L457 320 C473 280 447 243 404 243 L274 243 C254 243 229 225 222 206 L222 205 C215 185 227 166 247 166 L478 166 C498 166 524 148 531 128 L563 45 C563 45 566 36 572 22 L577 11 C580 4 588 -2 594 -2 L665 -2 C678 -2 685 9 680 20 L672 42 L434 659 C427 678 402 696 382 696 L325 696 C319 696 311 690 308 684 L303 672 C302 670 294 649 294 649 L289 652 L289 652 Z " />
<glyph glyph-name="&amp;#xc4;" unicode="&#xc4;" horiz-adv-x="728" d="M289 652 L53 51 C43 25 60 1 88 1 L129 1 C135 1 143 7 146 14 L151 25 L158 45 L307 434 C327 485 394 485 414 434 L457 320 C473 280 447 243 404 243 L274 243 C254 243 229 225 222 206 L222 205 C215 185 227 166 247 166 L478 166 C498 166 524 148 531 128 L563 45 C563 45 566 36 572 22 L577 11 C580 4 588 -2 594 -2 L665 -2 C678 -2 685 9 680 20 L672 42 L434 659 C427 678 402 696 382 696 L325 696 C319 696 311 690 308 684 L303 672 C302 670 294 649 294 649 L289 652 L289 652 Z " />
<glyph glyph-name="&amp;#xc5;" unicode="&#xc5;" horiz-adv-x="728" d="M289 652 L53 51 C43 25 60 1 88 1 L129 1 C135 1 143 7 146 14 L151 25 L158 45 L307 434 C327 485 394 485 414 434 L457 320 C473 280 447 243 404 243 L274 243 C254 243 229 225 222 206 L222 205 C215 185 227 166 247 166 L478 166 C498 166 524 148 531 128 L563 45 C563 45 566 36 572 22 L577 11 C580 4 588 -2 594 -2 L665 -2 C678 -2 685 9 680 20 L672 42 L434 659 C427 678 402 696 382 696 L325 696 C319 696 311 690 308 684 L303 672 C302 670 294 649 294 649 L289 652 L289 652 Z " />
<glyph glyph-name="B" unicode="B" horiz-adv-x="657" d="M464 406 C512 430 541 468 541 514 C541 647 469 698 285 698 L106 698 C75 698 49 672 49 641 L49 57 C49 26 75 0 106 0 L350 0 C534 0 606 57 606 202 C606 290 553 355 468 382 C461 385 456 402 463 406 L464 406 L464 406 Z M148 472 L148 564 C148 595 174 621 205 621 L288 621 C395 621 437 589 437 506 C437 451 370 415 269 415 L205 415 C174 415 148 441 148 472 L148 472 Z M148 134 L148 284 C148 315 174 341 205 341 L311 341 C424 341 498 290 498 214 C498 116 449 78 322 78 L206 78 C175 78 149 104 149 135 L148 134 L148 134 Z " />
<glyph glyph-name="C" unicode="C" horiz-adv-x="681" d="M550 168 C507 109 437 73 364 73 C239 73 156 200 156 349 C156 498 239 625 364 625 C428 625 496 589 543 530 C557 513 590 506 607 520 L608 521 C631 541 635 567 615 591 C555 661 460 706 363 706 C174 706 48 541 48 348 C48 155 174 -10 363 -10 C471 -10 568 35 619 105 C637 129 632 153 610 173 L604 178 C589 190 559 182 548 167 L550 168 L550 168 Z " />
<glyph glyph-name="&amp;#xc7;" unicode="&#xc7;" horiz-adv-x="681" d="M550 168 C507 109 437 73 364 73 C239 73 156 200 156 349 C156 498 239 625 364 625 C428 625 496 589 543 530 C557 513 590 506 607 520 L608 521 C631 541 635 567 615 591 C555 661 460 706 363 706 C174 706 48 541 48 348 C48 155 174 -10 363 -10 C471 -10 568 35 619 105 C637 129 632 153 610 173 L604 178 C589 190 559 182 548 167 L550 168 L550 168 Z " />
<glyph glyph-name="D" unicode="D" horiz-adv-x="675" d="M107 0 L290 0 C517 0 625 113 625 349 C625 580 501 698 262 698 L107 698 C76 698 50 672 50 641 L50 57 C50 26 76 0 107 0 L107 0 Z M150 98 L150 564 C150 595 176 621 207 621 L267 621 C434 621 520 529 520 349 C520 164 445 77 286 77 C252 77 206 78 168 78 C157 78 152 87 152 98 L150 98 L150 98 Z " />
<glyph glyph-name="E" unicode="E" horiz-adv-x="549" d="M459 81 L207 81 C176 81 150 107 150 138 L150 265 C150 296 176 322 207 322 L428 322 C449 322 466 339 466 360 C466 381 449 398 428 398 L207 398 C176 398 150 424 150 455 L150 560 C150 591 176 617 207 617 L445 617 C467 617 485 635 485 658 C485 680 467 698 445 698 L107 698 C76 698 50 672 50 641 L50 57 C50 26 76 0 107 0 L459 0 C481 0 499 18 499 41 C499 63 481 81 459 81 L459 81 Z " />
<glyph glyph-name="&amp;#xc8;" unicode="&#xc8;" horiz-adv-x="549" d="M459 81 L207 81 C176 81 150 107 150 138 L150 265 C150 296 176 322 207 322 L428 322 C449 322 466 339 466 360 C466 381 449 398 428 398 L207 398 C176 398 150 424 150 455 L150 560 C150 591 176 617 207 617 L445 617 C467 617 485 635 485 658 C485 680 467 698 445 698 L107 698 C76 698 50 672 50 641 L50 57 C50 26 76 0 107 0 L459 0 C481 0 499 18 499 41 C499 63 481 81 459 81 L459 81 Z " />
<glyph glyph-name="&amp;#xc9;" unicode="&#xc9;" horiz-adv-x="549" d="M459 81 L207 81 C176 81 150 107 150 138 L150 265 C150 296 176 322 207 322 L428 322 C449 322 466 339 466 360 C466 381 449 398 428 398 L207 398 C176 398 150 424 150 455 L150 560 C150 591 176 617 207 617 L445 617 C467 617 485 635 485 658 C485 680 467 698 445 698 L107 698 C76 698 50 672 50 641 L50 57 C50 26 76 0 107 0 L459 0 C481 0 499 18 499 41 C499 63 481 81 459 81 L459 81 Z " />
<glyph glyph-name="&amp;#xca;" unicode="&#xca;" horiz-adv-x="549" d="M459 81 L207 81 C176 81 150 107 150 138 L150 265 C150 296 176 322 207 322 L428 322 C449 322 466 339 466 360 C466 381 449 398 428 398 L207 398 C176 398 150 424 150 455 L150 560 C150 591 176 617 207 617 L445 617 C467 617 485 635 485 658 C485 680 467 698 445 698 L107 698 C76 698 50 672 50 641 L50 57 C50 26 76 0 107 0 L459 0 C481 0 499 18 499 41 C499 63 481 81 459 81 L459 81 Z " />
<glyph glyph-name="&amp;#xcb;" unicode="&#xcb;" horiz-adv-x="549" d="M459 81 L207 81 C176 81 150 107 150 138 L150 265 C150 296 176 322 207 322 L428 322 C449 322 466 339 466 360 C466 381 449 398 428 398 L207 398 C176 398 150 424 150 455 L150 560 C150 591 176 617 207 617 L445 617 C467 617 485 635 485 658 C485 680 467 698 445 698 L107 698 C76 698 50 672 50 641 L50 57 C50 26 76 0 107 0 L459 0 C481 0 499 18 499 41 C499 63 481 81 459 81 L459 81 Z " />
<glyph glyph-name="F" unicode="F" horiz-adv-x="535" d="M457 360 C457 381 440 398 419 398 L207 398 C176 398 150 424 150 455 L150 560 C150 591 176 617 207 617 L445 617 C467 617 485 635 485 658 C485 680 467 698 445 698 L107 698 C76 698 50 672 50 641 L50 50 C50 22 72 0 100 0 C127 0 149 22 149 50 L149 265 C149 296 175 322 206 322 L418 322 C439 322 456 339 456 360 L457 360 L457 360 Z " />
<glyph glyph-name="G" unicode="G" horiz-adv-x="723" d="M406 318 L522 318 C553 318 579 292 579 261 L579 161 C579 146 570 126 558 119 C514 91 456 72 396 72 C253 72 158 183 158 349 C158 515 253 626 396 626 C455 626 517 590 564 531 C578 514 610 507 627 521 L628 522 C651 542 656 568 636 592 C578 662 488 707 397 707 C189 707 51 564 51 350 C51 136 189 -7 397 -7 C494 -7 586 24 653 71 C664 79 674 100 674 114 L674 343 C674 374 648 400 617 400 L407 400 C384 400 366 382 366 360 C366 337 384 319 407 319 L406 318 L406 318 Z " />
<glyph glyph-name="H" unicode="H" horiz-adv-x="640" d="M590 50 L590 648 C590 675 568 697 541 697 C513 697 491 675 491 648 L491 464 C491 433 465 407 434 407 L207 407 C176 407 150 433 150 464 L150 648 C150 675 128 697 101 697 C73 697 51 675 51 648 L51 50 C51 22 73 0 101 0 C128 0 150 22 150 50 L150 271 C150 302 176 328 207 328 L434 328 C465 328 491 302 491 271 L491 50 C491 22 513 0 541 0 C568 0 590 22 590 50 L590 50 Z " />
<glyph glyph-name="I" unicode="I" horiz-adv-x="200" d="M150 50 L150 648 C150 675 128 697 101 697 C73 697 51 675 51 648 L51 50 C51 22 73 0 101 0 C128 0 150 22 150 50 L150 50 Z " />
<glyph glyph-name="&amp;#xcc;" unicode="&#xcc;" horiz-adv-x="200" d="M150 50 L150 648 C150 675 128 697 101 697 C73 697 51 675 51 648 L51 50 C51 22 73 0 101 0 C128 0 150 22 150 50 L150 50 Z " />
<glyph glyph-name="&amp;#xcd;" unicode="&#xcd;" horiz-adv-x="200" d="M150 50 L150 648 C150 675 128 697 101 697 C73 697 51 675 51 648 L51 50 C51 22 73 0 101 0 C128 0 150 22 150 50 L150 50 Z " />
<glyph glyph-name="&amp;#xce;" unicode="&#xce;" horiz-adv-x="200" d="M150 50 L150 648 C150 675 128 697 101 697 C73 697 51 675 51 648 L51 50 C51 22 73 0 101 0 C128 0 150 22 150 50 L150 50 Z " />
<glyph glyph-name="&amp;#xcf;" unicode="&#xcf;" horiz-adv-x="200" d="M150 50 L150 648 C150 675 128 697 101 697 C73 697 51 675 51 648 L51 50 C51 22 73 0 101 0 C128 0 150 22 150 50 L150 50 Z " />
<glyph glyph-name="J" unicode="J" horiz-adv-x="477" d="M50 232 L50 202 C50 57 109 -8 239 -8 C363 -8 427 78 427 205 L427 649 C427 676 405 698 378 698 C350 698 328 676 328 649 L328 205 C328 131 298 83 239 83 C178 83 150 129 150 231 L150 255 C150 267 140 276 127 274 L80 266 C64 263 51 247 51 231 L50 232 L50 232 Z " />
<glyph glyph-name="K" unicode="K" horiz-adv-x="613" d="M523 673 L522 673 L533 685 C537 690 534 697 527 697 L441 697 C433 697 413 688 407 681 L396 667 L393 663 C392 662 389 658 389 658 L248 491 C213 449 148 472 148 528 L148 645 C148 672 126 694 99 694 C71 694 49 672 49 645 L49 47 C49 19 71 -3 99 -3 C126 -3 148 19 148 46 L148 226 C148 233 157 257 163 263 L504 650 L522 671 L523 673 L523 673 Z M560 15 L551 32 L347 397 C333 421 304 425 286 405 L277 395 C264 380 260 348 270 329 L426 40 C429 34 449 -3 449 -3 C449 -3 451 -3 471 -3 L550 -2 C558 -2 564 6 559 14 L560 15 L560 15 Z " />
<glyph glyph-name="L" unicode="L" horiz-adv-x="502" d="M412 81 L206 81 C175 81 149 107 149 138 L149 649 C149 676 127 698 100 698 C72 698 50 676 50 649 L50 57 C50 26 76 0 107 0 L412 0 C434 0 452 18 452 41 C452 63 434 81 412 81 L412 81 Z " />
<glyph glyph-name="M" unicode="M" horiz-adv-x="756" d="M706 49 L706 642 C706 673 680 699 649 699 L592 699 C570 699 545 680 538 659 L431 316 C414 261 339 261 322 316 L213 659 C206 680 181 699 159 699 L107 699 C76 699 50 673 50 642 L50 49 C50 22 71 1 98 1 C124 1 145 22 145 49 L145 294 C145 343 219 354 234 307 L320 40 C327 19 352 0 374 0 L379 0 C401 0 426 19 433 40 L519 313 C534 360 608 348 608 299 L608 49 C608 22 629 1 656 1 C682 1 703 22 703 49 L706 49 L706 49 Z " />
<glyph glyph-name="N" unicode="N" horiz-adv-x="611" d="M353 335 L175 668 C168 683 142 699 125 699 L105 699 C74 699 50 675 50 644 L50 51 C50 23 72 1 100 1 C127 1 149 23 149 51 L149 283 C149 343 229 363 257 310 L406 32 C413 17 439 1 456 1 L503 1 C534 1 560 27 560 58 L560 650 C560 677 538 699 511 699 C483 699 461 677 461 650 L461 362 C461 302 381 282 353 334 L353 335 L353 335 Z " />
<glyph glyph-name="&amp;#xd1;" unicode="&#xd1;" horiz-adv-x="611" d="M353 335 L175 668 C168 683 142 699 125 699 L105 699 C74 699 50 675 50 644 L50 51 C50 23 72 1 100 1 C127 1 149 23 149 51 L149 283 C149 343 229 363 257 310 L406 32 C413 17 439 1 456 1 L503 1 C534 1 560 27 560 58 L560 650 C560 677 538 699 511 699 C483 699 461 677 461 650 L461 362 C461 302 381 282 353 334 L353 335 L353 335 Z " />
<glyph glyph-name="O" unicode="O" horiz-adv-x="749" d="M50 349 C50 135 180 -8 375 -8 C570 -8 699 135 699 349 C699 553 559 707 375 707 C190 707 50 553 50 349 L50 349 Z M157 349 C157 506 251 625 375 625 C499 625 592 506 592 349 C592 183 505 72 375 72 C245 72 158 183 158 349 L157 349 L157 349 Z " />
<glyph glyph-name="&amp;#xd2;" unicode="&#xd2;" horiz-adv-x="749" d="M50 349 C50 135 180 -8 375 -8 C570 -8 699 135 699 349 C699 553 559 707 375 707 C190 707 50 553 50 349 L50 349 Z M157 349 C157 506 251 625 375 625 C499 625 592 506 592 349 C592 183 505 72 375 72 C245 72 158 183 158 349 L157 349 L157 349 Z " />
<glyph glyph-name="&amp;#xd3;" unicode="&#xd3;" horiz-adv-x="749" d="M50 349 C50 135 180 -8 375 -8 C570 -8 699 135 699 349 C699 553 559 707 375 707 C190 707 50 553 50 349 L50 349 Z M157 349 C157 506 251 625 375 625 C499 625 592 506 592 349 C592 183 505 72 375 72 C245 72 158 183 158 349 L157 349 L157 349 Z " />
<glyph glyph-name="&amp;#xd4;" unicode="&#xd4;" horiz-adv-x="749" d="M50 349 C50 135 180 -8 375 -8 C570 -8 699 135 699 349 C699 553 559 707 375 707 C190 707 50 553 50 349 L50 349 Z M157 349 C157 506 251 625 375 625 C499 625 592 506 592 349 C592 183 505 72 375 72 C245 72 158 183 158 349 L157 349 L157 349 Z " />
<glyph glyph-name="&amp;#xd5;" unicode="&#xd5;" horiz-adv-x="749" d="M50 349 C50 135 180 -8 375 -8 C570 -8 699 135 699 349 C699 553 559 707 375 707 C190 707 50 553 50 349 L50 349 Z M157 349 C157 506 251 625 375 625 C499 625 592 506 592 349 C592 183 505 72 375 72 C245 72 158 183 158 349 L157 349 L157 349 Z " />
<glyph glyph-name="&amp;#xd6;" unicode="&#xd6;" horiz-adv-x="749" d="M50 349 C50 135 180 -8 375 -8 C570 -8 699 135 699 349 C699 553 559 707 375 707 C190 707 50 553 50 349 L50 349 Z M157 349 C157 506 251 625 375 625 C499 625 592 506 592 349 C592 183 505 72 375 72 C245 72 158 183 158 349 L157 349 L157 349 Z " />
<glyph glyph-name="&amp;#xd8;" unicode="&#xd8;" horiz-adv-x="749" d="M50 349 C50 135 180 -8 375 -8 C570 -8 699 135 699 349 C699 553 559 707 375 707 C190 707 50 553 50 349 L50 349 Z M157 349 C157 506 251 625 375 625 C499 625 592 506 592 349 C592 183 505 72 375 72 C245 72 158 183 158 349 L157 349 L157 349 Z " />
<glyph glyph-name="P" unicode="P" horiz-adv-x="563" d="M150 50 L150 227 C150 258 176 284 207 284 L288 284 C437 284 513 354 513 489 C513 628 437 699 288 699 L107 699 C76 699 50 673 50 642 L50 51 C50 23 72 1 100 1 C127 1 149 23 149 51 L150 50 L150 50 Z M149 419 L149 565 C149 596 175 622 206 622 L283 622 C369 622 413 577 413 490 C413 406 371 362 291 362 L206 362 C175 362 149 388 149 419 L149 419 Z " />
<glyph glyph-name="Q" unicode="Q" horiz-adv-x="749" d="M50 349 C50 135 180 -8 375 -8 C412 -8 445 -3 478 7 C486 10 503 7 510 0 C557 -54 587 -85 587 -85 C587 -85 595 -78 605 -69 L631 -47 C640 -40 656 -42 648 -34 C647 -33 627 -12 594 25 C583 38 588 64 600 76 C663 138 699 233 699 347 C699 551 559 705 375 705 C190 705 50 551 50 347 L50 349 L50 349 Z M158 347 C158 504 252 623 376 623 C500 623 593 504 593 347 C593 256 567 182 521 134 C515 127 505 128 499 135 C486 150 472 166 458 182 C451 189 440 191 433 184 L396 152 C389 147 388 138 393 132 C406 116 419 101 431 87 C435 83 433 77 427 76 C410 71 392 69 373 69 C243 69 156 180 156 346 L158 347 L158 347 Z " />
<glyph glyph-name="R" unicode="R" horiz-adv-x="575" d="M523 23 L511 45 L391 266 C381 285 394 315 414 323 C480 352 513 408 513 489 C513 628 437 699 288 699 L107 699 C76 699 50 673 50 642 L50 51 C50 23 72 1 100 1 C127 1 149 23 149 51 L149 250 C149 279 173 303 203 303 L223 303 C239 303 265 287 272 273 L405 30 C412 15 438 0 454 0 L508 -1 C521 -1 528 11 522 22 L523 23 L523 23 Z M149 436 L149 563 C149 594 175 620 206 620 L283 620 C369 620 413 575 413 488 C413 416 371 379 290 379 L206 379 C175 379 149 405 149 436 L149 436 Z " />
<glyph glyph-name="S" unicode="S" horiz-adv-x="589" d="M478 616 C410 676 333 707 263 707 C136 707 50 628 50 509 C50 404 127 336 276 310 C384 291 439 251 439 192 C439 124 396 78 313 78 C244 78 177 122 135 205 C133 209 128 209 124 207 C113 199 101 191 90 184 L69 169 C56 160 51 145 59 131 C111 40 206 -7 312 -7 C461 -7 537 75 537 197 C537 311 457 384 302 411 C201 429 150 466 150 521 C150 581 195 620 262 620 C306 620 359 597 409 552 C425 537 458 535 475 550 L477 552 C498 572 499 599 478 619 L478 616 L478 616 Z " />
<glyph glyph-name="T" unicode="T" horiz-adv-x="635" d="M367 50 L367 560 C367 591 393 617 424 617 L545 617 C567 617 585 635 585 658 C585 680 567 698 545 698 L91 698 C68 698 50 680 50 658 C50 635 68 617 91 617 L211 617 C242 617 268 591 268 560 L268 50 C268 22 290 0 318 0 C345 0 367 22 367 50 L367 50 Z " />
<glyph glyph-name="U" unicode="U" horiz-adv-x="607" d="M50 649 L50 270 C50 87 137 -8 305 -8 C473 -8 559 87 559 270 L559 649 C559 676 537 698 510 698 C482 698 460 676 460 649 L460 288 C460 153 408 83 307 83 C205 83 153 153 153 288 L153 649 C153 676 131 698 104 698 C76 698 54 676 54 649 L50 649 L50 649 Z " />
<glyph glyph-name="&amp;#xd9;" unicode="&#xd9;" horiz-adv-x="607" d="M50 649 L50 270 C50 87 137 -8 305 -8 C473 -8 559 87 559 270 L559 649 C559 676 537 698 510 698 C482 698 460 676 460 649 L460 288 C460 153 408 83 307 83 C205 83 153 153 153 288 L153 649 C153 676 131 698 104 698 C76 698 54 676 54 649 L50 649 L50 649 Z " />
<glyph glyph-name="&amp;#xda;" unicode="&#xda;" horiz-adv-x="607" d="M50 649 L50 270 C50 87 137 -8 305 -8 C473 -8 559 87 559 270 L559 649 C559 676 537 698 510 698 C482 698 460 676 460 649 L460 288 C460 153 408 83 307 83 C205 83 153 153 153 288 L153 649 C153 676 131 698 104 698 C76 698 54 676 54 649 L50 649 L50 649 Z " />
<glyph glyph-name="&amp;#xdb;" unicode="&#xdb;" horiz-adv-x="607" d="M50 649 L50 270 C50 87 137 -8 305 -8 C473 -8 559 87 559 270 L559 649 C559 676 537 698 510 698 C482 698 460 676 460 649 L460 288 C460 153 408 83 307 83 C205 83 153 153 153 288 L153 649 C153 676 131 698 104 698 C76 698 54 676 54 649 L50 649 L50 649 Z " />
<glyph glyph-name="&amp;#xdc;" unicode="&#xdc;" horiz-adv-x="607" d="M50 649 L50 270 C50 87 137 -8 305 -8 C473 -8 559 87 559 270 L559 649 C559 676 537 698 510 698 C482 698 460 676 460 649 L460 288 C460 153 408 83 307 83 C205 83 153 153 153 288 L153 649 C153 676 131 698 104 698 C76 698 54 676 54 649 L50 649 L50 649 Z " />
<glyph glyph-name="V" unicode="V" horiz-adv-x="642" d="M64 652 L261 41 C268 20 294 1 316 1 L328 1 C350 1 375 20 382 41 L585 680 C589 691 591 698 591 698 C591 698 589 698 587 698 L507 697 C495 697 481 687 477 675 L470 653 L374 332 C358 276 282 276 265 331 L168 652 C167 655 154 698 154 699 L50 699 C49 699 48 697 48 696 C52 685 61 652 62 652 L64 652 L64 652 Z " />
<glyph glyph-name="W" unicode="W" horiz-adv-x="817" d="M50 690 C53 677 56 664 59 652 L186 46 C191 21 217 1 242 1 L246 1 C270 1 295 21 301 44 L354 262 C368 321 451 320 465 262 L516 44 C522 21 548 1 572 1 L575 1 C600 1 626 21 631 46 L761 657 L766 675 L769 687 C770 693 765 699 758 699 L675 699 C668 699 661 693 660 687 L657 675 C655 668 654 661 653 657 L611 434 C602 385 529 383 517 432 L465 653 C460 676 434 696 410 696 L405 697 C381 697 355 677 349 653 L264 283 C260 267 236 272 232 288 C209 410 186 531 164 652 L159 675 C156 688 143 698 131 698 L56 699 C51 699 48 694 49 690 L50 690 L50 690 Z " />
<glyph glyph-name="X" unicode="X" horiz-adv-x="624" d="M241 335 C180 235 118 136 56 36 C42 14 62 -1 88 -1 L111 -1 C126 -1 152 14 159 27 C201 94 243 160 285 227 C299 249 325 245 337 223 L440 44 C440 44 464 1 467 -3 L518 -3 C542 -3 555 20 543 41 C488 135 435 231 380 326 C372 341 374 369 383 383 C438 471 494 560 549 647 C556 660 565 673 572 686 C575 690 572 694 567 694 L497 694 C482 694 458 682 450 669 C413 609 375 549 338 489 C326 469 299 467 287 487 L195 648 L182 671 C175 682 154 694 141 694 L117 694 C92 694 78 673 90 652 C141 563 192 475 243 387 C251 372 249 348 240 334 L241 335 L241 335 Z " />
<glyph glyph-name="Y" unicode="Y" horiz-adv-x="630" d="M306 0 C333 0 355 22 355 49 L355 292 C355 296 358 313 361 317 C430 437 498 556 568 675 C576 689 581 698 581 698 C581 698 517 698 515 698 C499 698 473 683 465 669 L356 478 C333 436 281 436 258 478 L149 669 C141 683 115 698 99 698 L83 698 C59 698 44 678 56 658 C123 541 190 424 258 307 C260 303 258 296 258 292 L258 50 C258 23 280 1 307 1 L306 0 L306 0 Z " />
<glyph glyph-name="&amp;#xdd;" unicode="&#xdd;" horiz-adv-x="630" d="M306 0 C333 0 355 22 355 49 L355 292 C355 296 358 313 361 317 C430 437 498 556 568 675 C576 689 581 698 581 698 C581 698 517 698 515 698 C499 698 473 683 465 669 L356 478 C333 436 281 436 258 478 L149 669 C141 683 115 698 99 698 L83 698 C59 698 44 678 56 658 C123 541 190 424 258 307 C260 303 258 296 258 292 L258 50 C258 23 280 1 307 1 L306 0 L306 0 Z " />
<glyph glyph-name="Z" unicode="Z" horiz-adv-x="626" d="M536 81 L286 81 C236 81 211 132 241 172 L566 602 C570 607 577 630 577 637 L577 658 C577 680 559 698 537 698 L106 698 C83 698 65 680 65 658 C65 635 83 617 106 617 L341 617 C391 617 416 566 386 526 L61 96 C57 91 50 68 50 61 L50 41 C50 18 68 0 91 0 L536 0 C558 0 576 18 576 41 C576 63 558 81 536 81 L536 81 Z " />
<glyph glyph-name="a" unicode="a" horiz-adv-x="728" d="M289 652 L53 51 C43 25 60 1 88 1 L129 1 C135 1 143 7 146 14 L151 25 L158 45 L307 434 C327 485 394 485 414 434 L457 320 C473 280 447 243 404 243 L274 243 C254 243 229 225 222 206 L222 205 C215 185 227 166 247 166 L478 166 C498 166 524 148 531 128 L563 45 C563 45 566 36 572 22 L577 11 C580 4 588 -2 594 -2 L665 -2 C678 -2 685 9 680 20 L672 42 L434 659 C427 678 402 696 382 696 L325 696 C319 696 311 690 308 684 L303 672 C302 670 294 649 294 649 L289 652 L289 652 Z " />
<glyph glyph-name="&amp;#xe0;" unicode="&#xe0;" horiz-adv-x="728" d="M289 652 L53 51 C43 25 60 1 88 1 L129 1 C135 1 143 7 146 14 L151 25 L158 45 L307 434 C327 485 394 485 414 434 L457 320 C473 280 447 243 404 243 L274 243 C254 243 229 225 222 206 L222 205 C215 185 227 166 247 166 L478 166 C498 166 524 148 531 128 L563 45 C563 45 566 36 572 22 L577 11 C580 4 588 -2 594 -2 L665 -2 C678 -2 685 9 680 20 L672 42 L434 659 C427 678 402 696 382 696 L325 696 C319 696 311 690 308 684 L303 672 C302 670 294 649 294 649 L289 652 L289 652 Z " />
<glyph glyph-name="&amp;#xe1;" unicode="&#xe1;" horiz-adv-x="728" d="M289 652 L53 51 C43 25 60 1 88 1 L129 1 C135 1 143 7 146 14 L151 25 L158 45 L307 434 C327 485 394 485 414 434 L457 320 C473 280 447 243 404 243 L274 243 C254 243 229 225 222 206 L222 205 C215 185 227 166 247 166 L478 166 C498 166 524 148 531 128 L563 45 C563 45 566 36 572 22 L577 11 C580 4 588 -2 594 -2 L665 -2 C678 -2 685 9 680 20 L672 42 L434 659 C427 678 402 696 382 696 L325 696 C319 696 311 690 308 684 L303 672 C302 670 294 649 294 649 L289 652 L289 652 Z " />
<glyph glyph-name="&amp;#xe2;" unicode="&#xe2;" horiz-adv-x="728" d="M289 652 L53 51 C43 25 60 1 88 1 L129 1 C135 1 143 7 146 14 L151 25 L158 45 L307 434 C327 485 394 485 414 434 L457 320 C473 280 447 243 404 243 L274 243 C254 243 229 225 222 206 L222 205 C215 185 227 166 247 166 L478 166 C498 166 524 148 531 128 L563 45 C563 45 566 36 572 22 L577 11 C580 4 588 -2 594 -2 L665 -2 C678 -2 685 9 680 20 L672 42 L434 659 C427 678 402 696 382 696 L325 696 C319 696 311 690 308 684 L303 672 C302 670 294 649 294 649 L289 652 L289 652 Z " />
<glyph glyph-name="&amp;#xe3;" unicode="&#xe3;" horiz-adv-x="728" d="M289 652 L53 51 C43 25 60 1 88 1 L129 1 C135 1 143 7 146 14 L151 25 L158 45 L307 434 C327 485 394 485 414 434 L457 320 C473 280 447 243 404 243 L274 243 C254 243 229 225 222 206 L222 205 C215 185 227 166 247 166 L478 166 C498 166 524 148 531 128 L563 45 C563 45 566 36 572 22 L577 11 C580 4 588 -2 594 -2 L665 -2 C678 -2 685 9 680 20 L672 42 L434 659 C427 678 402 696 382 696 L325 696 C319 696 311 690 308 684 L303 672 C302 670 294 649 294 649 L289 652 L289 652 Z " />
<glyph glyph-name="&amp;#xe4;" unicode="&#xe4;" horiz-adv-x="728" d="M289 652 L53 51 C43 25 60 1 88 1 L129 1 C135 1 143 7 146 14 L151 25 L158 45 L307 434 C327 485 394 485 414 434 L457 320 C473 280 447 243 404 243 L274 243 C254 243 229 225 222 206 L222 205 C215 185 227 166 247 166 L478 166 C498 166 524 148 531 128 L563 45 C563 45 566 36 572 22 L577 11 C580 4 588 -2 594 -2 L665 -2 C678 -2 685 9 680 20 L672 42 L434 659 C427 678 402 696 382 696 L325 696 C319 696 311 690 308 684 L303 672 C302 670 294 649 294 649 L289 652 L289 652 Z " />
<glyph glyph-name="&amp;#xe5;" unicode="&#xe5;" horiz-adv-x="728" d="M289 652 L53 51 C43 25 60 1 88 1 L129 1 C135 1 143 7 146 14 L151 25 L158 45 L307 434 C327 485 394 485 414 434 L457 320 C473 280 447 243 404 243 L274 243 C254 243 229 225 222 206 L222 205 C215 185 227 166 247 166 L478 166 C498 166 524 148 531 128 L563 45 C563 45 566 36 572 22 L577 11 C580 4 588 -2 594 -2 L665 -2 C678 -2 685 9 680 20 L672 42 L434 659 C427 678 402 696 382 696 L325 696 C319 696 311 690 308 684 L303 672 C302 670 294 649 294 649 L289 652 L289 652 Z " />
<glyph glyph-name="b" unicode="b" horiz-adv-x="657" d="M464 406 C512 430 541 468 541 514 C541 647 469 698 285 698 L106 698 C75 698 49 672 49 641 L49 57 C49 26 75 0 106 0 L350 0 C534 0 606 57 606 202 C606 290 553 355 468 382 C461 385 456 402 463 406 L464 406 L464 406 Z M148 472 L148 564 C148 595 174 621 205 621 L288 621 C395 621 437 589 437 506 C437 451 370 415 269 415 L205 415 C174 415 148 441 148 472 L148 472 Z M148 134 L148 284 C148 315 174 341 205 341 L311 341 C424 341 498 290 498 214 C498 116 449 78 322 78 L206 78 C175 78 149 104 149 135 L148 134 L148 134 Z " />
<glyph glyph-name="c" unicode="c" horiz-adv-x="681" d="M550 168 C507 109 437 73 364 73 C239 73 156 200 156 349 C156 498 239 625 364 625 C428 625 496 589 543 530 C557 513 590 506 607 520 L608 521 C631 541 635 567 615 591 C555 661 460 706 363 706 C174 706 48 541 48 348 C48 155 174 -10 363 -10 C471 -10 568 35 619 105 C637 129 632 153 610 173 L604 178 C589 190 559 182 548 167 L550 168 L550 168 Z " />
<glyph glyph-name="&amp;#xe7;" unicode="&#xe7;" horiz-adv-x="681" d="M550 168 C507 109 437 73 364 73 C239 73 156 200 156 349 C156 498 239 625 364 625 C428 625 496 589 543 530 C557 513 590 506 607 520 L608 521 C631 541 635 567 615 591 C555 661 460 706 363 706 C174 706 48 541 48 348 C48 155 174 -10 363 -10 C471 -10 568 35 619 105 C637 129 632 153 610 173 L604 178 C589 190 559 182 548 167 L550 168 L550 168 Z " />
<glyph glyph-name="d" unicode="d" horiz-adv-x="675" d="M107 0 L290 0 C517 0 625 113 625 349 C625 580 501 698 262 698 L107 698 C76 698 50 672 50 641 L50 57 C50 26 76 0 107 0 L107 0 Z M150 98 L150 564 C150 595 176 621 207 621 L267 621 C434 621 520 529 520 349 C520 164 445 77 286 77 C252 77 206 78 168 78 C157 78 152 87 152 98 L150 98 L150 98 Z " />
<glyph glyph-name="e" unicode="e" horiz-adv-x="549" d="M459 81 L207 81 C176 81 150 107 150 138 L150 265 C150 296 176 322 207 322 L428 322 C449 322 466 339 466 360 C466 381 449 398 428 398 L207 398 C176 398 150 424 150 455 L150 560 C150 591 176 617 207 617 L445 617 C467 617 485 635 485 658 C485 680 467 698 445 698 L107 698 C76 698 50 672 50 641 L50 57 C50 26 76 0 107 0 L459 0 C481 0 499 18 499 41 C499 63 481 81 459 81 L459 81 Z " />
<glyph glyph-name="&amp;#xe8;" unicode="&#xe8;" horiz-adv-x="549" d="M459 81 L207 81 C176 81 150 107 150 138 L150 265 C150 296 176 322 207 322 L428 322 C449 322 466 339 466 360 C466 381 449 398 428 398 L207 398 C176 398 150 424 150 455 L150 560 C150 591 176 617 207 617 L445 617 C467 617 485 635 485 658 C485 680 467 698 445 698 L107 698 C76 698 50 672 50 641 L50 57 C50 26 76 0 107 0 L459 0 C481 0 499 18 499 41 C499 63 481 81 459 81 L459 81 Z " />
<glyph glyph-name="&amp;#xe9;" unicode="&#xe9;" horiz-adv-x="549" d="M459 81 L207 81 C176 81 150 107 150 138 L150 265 C150 296 176 322 207 322 L428 322 C449 322 466 339 466 360 C466 381 449 398 428 398 L207 398 C176 398 150 424 150 455 L150 560 C150 591 176 617 207 617 L445 617 C467 617 485 635 485 658 C485 680 467 698 445 698 L107 698 C76 698 50 672 50 641 L50 57 C50 26 76 0 107 0 L459 0 C481 0 499 18 499 41 C499 63 481 81 459 81 L459 81 Z " />
<glyph glyph-name="&amp;#xea;" unicode="&#xea;" horiz-adv-x="549" d="M459 81 L207 81 C176 81 150 107 150 138 L150 265 C150 296 176 322 207 322 L428 322 C449 322 466 339 466 360 C466 381 449 398 428 398 L207 398 C176 398 150 424 150 455 L150 560 C150 591 176 617 207 617 L445 617 C467 617 485 635 485 658 C485 680 467 698 445 698 L107 698 C76 698 50 672 50 641 L50 57 C50 26 76 0 107 0 L459 0 C481 0 499 18 499 41 C499 63 481 81 459 81 L459 81 Z " />
<glyph glyph-name="&amp;#xeb;" unicode="&#xeb;" horiz-adv-x="549" d="M459 81 L207 81 C176 81 150 107 150 138 L150 265 C150 296 176 322 207 322 L428 322 C449 322 466 339 466 360 C466 381 449 398 428 398 L207 398 C176 398 150 424 150 455 L150 560 C150 591 176 617 207 617 L445 617 C467 617 485 635 485 658 C485 680 467 698 445 698 L107 698 C76 698 50 672 50 641 L50 57 C50 26 76 0 107 0 L459 0 C481 0 499 18 499 41 C499 63 481 81 459 81 L459 81 Z " />
<glyph glyph-name="f" unicode="f" horiz-adv-x="535" d="M457 360 C457 381 440 398 419 398 L207 398 C176 398 150 424 150 455 L150 560 C150 591 176 617 207 617 L445 617 C467 617 485 635 485 658 C485 680 467 698 445 698 L107 698 C76 698 50 672 50 641 L50 50 C50 22 72 0 100 0 C127 0 149 22 149 50 L149 265 C149 296 175 322 206 322 L418 322 C439 322 456 339 456 360 L457 360 L457 360 Z " />
<glyph glyph-name="g" unicode="g" horiz-adv-x="723" d="M406 318 L522 318 C553 318 579 292 579 261 L579 161 C579 146 570 126 558 119 C514 91 456 72 396 72 C253 72 158 183 158 349 C158 515 253 626 396 626 C455 626 517 590 564 531 C578 514 610 507 627 521 L628 522 C651 542 656 568 636 592 C578 662 488 707 397 707 C189 707 51 564 51 350 C51 136 189 -7 397 -7 C494 -7 586 24 653 71 C664 79 674 100 674 114 L674 343 C674 374 648 400 617 400 L407 400 C384 400 366 382 366 360 C366 337 384 319 407 319 L406 318 L406 318 Z " />
<glyph glyph-name="h" unicode="h" horiz-adv-x="640" d="M590 50 L590 648 C590 675 568 697 541 697 C513 697 491 675 491 648 L491 464 C491 433 465 407 434 407 L207 407 C176 407 150 433 150 464 L150 648 C150 675 128 697 101 697 C73 697 51 675 51 648 L51 50 C51 22 73 0 101 0 C128 0 150 22 150 50 L150 271 C150 302 176 328 207 328 L434 328 C465 328 491 302 491 271 L491 50 C491 22 513 0 541 0 C568 0 590 22 590 50 L590 50 Z " />
<glyph glyph-name="i" unicode="i" horiz-adv-x="200" d="M150 50 L150 648 C150 675 128 697 101 697 C73 697 51 675 51 648 L51 50 C51 22 73 0 101 0 C128 0 150 22 150 50 L150 50 Z " />
<glyph glyph-name="&amp;#xec;" unicode="&#xec;" horiz-adv-x="200" d="M150 50 L150 648 C150 675 128 697 101 697 C73 697 51 675 51 648 L51 50 C51 22 73 0 101 0 C128 0 150 22 150 50 L150 50 Z " />
<glyph glyph-name="&amp;#xed;" unicode="&#xed;" horiz-adv-x="200" d="M150 50 L150 648 C150 675 128 697 101 697 C73 697 51 675 51 648 L51 50 C51 22 73 0 101 0 C128 0 150 22 150 50 L150 50 Z " />
<glyph glyph-name="&amp;#xee;" unicode="&#xee;" horiz-adv-x="200" d="M150 50 L150 648 C150 675 128 697 101 697 C73 697 51 675 51 648 L51 50 C51 22 73 0 101 0 C128 0 150 22 150 50 L150 50 Z " />
<glyph glyph-name="&amp;#xef;" unicode="&#xef;" horiz-adv-x="200" d="M150 50 L150 648 C150 675 128 697 101 697 C73 697 51 675 51 648 L51 50 C51 22 73 0 101 0 C128 0 150 22 150 50 L150 50 Z " />
<glyph glyph-name="j" unicode="j" horiz-adv-x="477" d="M50 232 L50 202 C50 57 109 -8 239 -8 C363 -8 427 78 427 205 L427 649 C427 676 405 698 378 698 C350 698 328 676 328 649 L328 205 C328 131 298 83 239 83 C178 83 150 129 150 231 L150 255 C150 267 140 276 127 274 L80 266 C64 263 51 247 51 231 L50 232 L50 232 Z " />
<glyph glyph-name="k" unicode="k" horiz-adv-x="613" d="M523 673 L522 673 L533 685 C537 690 534 697 527 697 L441 697 C433 697 413 688 407 681 L396 667 L393 663 C392 662 389 658 389 658 L248 491 C213 449 148 472 148 528 L148 645 C148 672 126 694 99 694 C71 694 49 672 49 645 L49 47 C49 19 71 -3 99 -3 C126 -3 148 19 148 46 L148 226 C148 233 157 257 163 263 L504 650 L522 671 L523 673 L523 673 Z M560 15 L551 32 L347 397 C333 421 304 425 286 405 L277 395 C264 380 260 348 270 329 L426 40 C429 34 449 -3 449 -3 C449 -3 451 -3 471 -3 L550 -2 C558 -2 564 6 559 14 L560 15 L560 15 Z " />
<glyph glyph-name="l" unicode="l" horiz-adv-x="502" d="M412 81 L206 81 C175 81 149 107 149 138 L149 649 C149 676 127 698 100 698 C72 698 50 676 50 649 L50 57 C50 26 76 0 107 0 L412 0 C434 0 452 18 452 41 C452 63 434 81 412 81 L412 81 Z " />
<glyph glyph-name="m" unicode="m" horiz-adv-x="756" d="M706 49 L706 642 C706 673 680 699 649 699 L592 699 C570 699 545 680 538 659 L431 316 C414 261 339 261 322 316 L213 659 C206 680 181 699 159 699 L107 699 C76 699 50 673 50 642 L50 49 C50 22 71 1 98 1 C124 1 145 22 145 49 L145 294 C145 343 219 354 234 307 L320 40 C327 19 352 0 374 0 L379 0 C401 0 426 19 433 40 L519 313 C534 360 608 348 608 299 L608 49 C608 22 629 1 656 1 C682 1 703 22 703 49 L706 49 L706 49 Z " />
<glyph glyph-name="n" unicode="n" horiz-adv-x="611" d="M353 335 L175 668 C168 683 142 699 125 699 L105 699 C74 699 50 675 50 644 L50 51 C50 23 72 1 100 1 C127 1 149 23 149 51 L149 283 C149 343 229 363 257 310 L406 32 C413 17 439 1 456 1 L503 1 C534 1 560 27 560 58 L560 650 C560 677 538 699 511 699 C483 699 461 677 461 650 L461 362 C461 302 381 282 353 334 L353 335 L353 335 Z " />
<glyph glyph-name="&amp;#xf1;" unicode="&#xf1;" horiz-adv-x="611" d="M353 335 L175 668 C168 683 142 699 125 699 L105 699 C74 699 50 675 50 644 L50 51 C50 23 72 1 100 1 C127 1 149 23 149 51 L149 283 C149 343 229 363 257 310 L406 32 C413 17 439 1 456 1 L503 1 C534 1 560 27 560 58 L560 650 C560 677 538 699 511 699 C483 699 461 677 461 650 L461 362 C461 302 381 282 353 334 L353 335 L353 335 Z " />
<glyph glyph-name="o" unicode="o" horiz-adv-x="749" d="M50 349 C50 135 180 -8 375 -8 C570 -8 699 135 699 349 C699 553 559 707 375 707 C190 707 50 553 50 349 L50 349 Z M157 349 C157 506 251 625 375 625 C499 625 592 506 592 349 C592 183 505 72 375 72 C245 72 158 183 158 349 L157 349 L157 349 Z " />
<glyph glyph-name="&amp;#xf2;" unicode="&#xf2;" horiz-adv-x="749" d="M50 349 C50 135 180 -8 375 -8 C570 -8 699 135 699 349 C699 553 559 707 375 707 C190 707 50 553 50 349 L50 349 Z M157 349 C157 506 251 625 375 625 C499 625 592 506 592 349 C592 183 505 72 375 72 C245 72 158 183 158 349 L157 349 L157 349 Z " />
<glyph glyph-name="&amp;#xf3;" unicode="&#xf3;" horiz-adv-x="749" d="M50 349 C50 135 180 -8 375 -8 C570 -8 699 135 699 349 C699 553 559 707 375 707 C190 707 50 553 50 349 L50 349 Z M157 349 C157 506 251 625 375 625 C499 625 592 506 592 349 C592 183 505 72 375 72 C245 72 158 183 158 349 L157 349 L157 349 Z " />
<glyph glyph-name="&amp;#xf4;" unicode="&#xf4;" horiz-adv-x="749" d="M50 349 C50 135 180 -8 375 -8 C570 -8 699 135 699 349 C699 553 559 707 375 707 C190 707 50 553 50 349 L50 349 Z M157 349 C157 506 251 625 375 625 C499 625 592 506 592 349 C592 183 505 72 375 72 C245 72 158 183 158 349 L157 349 L157 349 Z " />
<glyph glyph-name="&amp;#xf5;" unicode="&#xf5;" horiz-adv-x="749" d="M50 349 C50 135 180 -8 375 -8 C570 -8 699 135 699 349 C699 553 559 707 375 707 C190 707 50 553 50 349 L50 349 Z M157 349 C157 506 251 625 375 625 C499 625 592 506 592 349 C592 183 505 72 375 72 C245 72 158 183 158 349 L157 349 L157 349 Z " />
<glyph glyph-name="&amp;#xf6;" unicode="&#xf6;" horiz-adv-x="749" d="M50 349 C50 135 180 -8 375 -8 C570 -8 699 135 699 349 C699 553 559 707 375 707 C190 707 50 553 50 349 L50 349 Z M157 349 C157 506 251 625 375 625 C499 625 592 506 592 349 C592 183 505 72 375 72 C245 72 158 183 158 349 L157 349 L157 349 Z " />
<glyph glyph-name="&amp;#xf8;" unicode="&#xf8;" horiz-adv-x="749" d="M50 349 C50 135 180 -8 375 -8 C570 -8 699 135 699 349 C699 553 559 707 375 707 C190 707 50 553 50 349 L50 349 Z M157 349 C157 506 251 625 375 625 C499 625 592 506 592 349 C592 183 505 72 375 72 C245 72 158 183 158 349 L157 349 L157 349 Z " />
<glyph glyph-name="p" unicode="p" horiz-adv-x="563" d="M150 50 L150 227 C150 258 176 284 207 284 L288 284 C437 284 513 354 513 489 C513 628 437 699 288 699 L107 699 C76 699 50 673 50 642 L50 51 C50 23 72 1 100 1 C127 1 149 23 149 51 L150 50 L150 50 Z M149 419 L149 565 C149 596 175 622 206 622 L283 622 C369 622 413 577 413 490 C413 406 371 362 291 362 L206 362 C175 362 149 388 149 419 L149 419 Z " />
<glyph glyph-name="q" unicode="q" horiz-adv-x="749" d="M50 349 C50 135 180 -8 375 -8 C412 -8 445 -3 478 7 C486 10 503 7 510 0 C557 -54 587 -85 587 -85 C587 -85 595 -78 605 -69 L631 -47 C640 -40 656 -42 648 -34 C647 -33 627 -12 594 25 C583 38 588 64 600 76 C663 138 699 233 699 347 C699 551 559 705 375 705 C190 705 50 551 50 347 L50 349 L50 349 Z M158 347 C158 504 252 623 376 623 C500 623 593 504 593 347 C593 256 567 182 521 134 C515 127 505 128 499 135 C486 150 472 166 458 182 C451 189 440 191 433 184 L396 152 C389 147 388 138 393 132 C406 116 419 101 431 87 C435 83 433 77 427 76 C410 71 392 69 373 69 C243 69 156 180 156 346 L158 347 L158 347 Z " />
<glyph glyph-name="r" unicode="r" horiz-adv-x="575" d="M523 23 L511 45 L391 266 C381 285 394 315 414 323 C480 352 513 408 513 489 C513 628 437 699 288 699 L107 699 C76 699 50 673 50 642 L50 51 C50 23 72 1 100 1 C127 1 149 23 149 51 L149 250 C149 279 173 303 203 303 L223 303 C239 303 265 287 272 273 L405 30 C412 15 438 0 454 0 L508 -1 C521 -1 528 11 522 22 L523 23 L523 23 Z M149 436 L149 563 C149 594 175 620 206 620 L283 620 C369 620 413 575 413 488 C413 416 371 379 290 379 L206 379 C175 379 149 405 149 436 L149 436 Z " />
<glyph glyph-name="s" unicode="s" horiz-adv-x="589" d="M478 616 C410 676 333 707 263 707 C136 707 50 628 50 509 C50 404 127 336 276 310 C384 291 439 251 439 192 C439 124 396 78 313 78 C244 78 177 122 135 205 C133 209 128 209 124 207 C113 199 101 191 90 184 L69 169 C56 160 51 145 59 131 C111 40 206 -7 312 -7 C461 -7 537 75 537 197 C537 311 457 384 302 411 C201 429 150 466 150 521 C150 581 195 620 262 620 C306 620 359 597 409 552 C425 537 458 535 475 550 L477 552 C498 572 499 599 478 619 L478 616 L478 616 Z " />
<glyph glyph-name="&amp;#xdf;" unicode="&#xdf;" horiz-adv-x="589" d="M478 616 C410 676 333 707 263 707 C136 707 50 628 50 509 C50 404 127 336 276 310 C384 291 439 251 439 192 C439 124 396 78 313 78 C244 78 177 122 135 205 C133 209 128 209 124 207 C113 199 101 191 90 184 L69 169 C56 160 51 145 59 131 C111 40 206 -7 312 -7 C461 -7 537 75 537 197 C537 311 457 384 302 411 C201 429 150 466 150 521 C150 581 195 620 262 620 C306 620 359 597 409 552 C425 537 458 535 475 550 L477 552 C498 572 499 599 478 619 L478 616 L478 616 Z " />
<glyph glyph-name="t" unicode="t" horiz-adv-x="635" d="M367 50 L367 560 C367 591 393 617 424 617 L545 617 C567 617 585 635 585 658 C585 680 567 698 545 698 L91 698 C68 698 50 680 50 658 C50 635 68 617 91 617 L211 617 C242 617 268 591 268 560 L268 50 C268 22 290 0 318 0 C345 0 367 22 367 50 L367 50 Z " />
<glyph glyph-name="u" unicode="u" horiz-adv-x="607" d="M50 649 L50 270 C50 87 137 -8 305 -8 C473 -8 559 87 559 270 L559 649 C559 676 537 698 510 698 C482 698 460 676 460 649 L460 288 C460 153 408 83 307 83 C205 83 153 153 153 288 L153 649 C153 676 131 698 104 698 C76 698 54 676 54 649 L50 649 L50 649 Z " />
<glyph glyph-name="&amp;#xf9;" unicode="&#xf9;" horiz-adv-x="607" d="M50 649 L50 270 C50 87 137 -8 305 -8 C473 -8 559 87 559 270 L559 649 C559 676 537 698 510 698 C482 698 460 676 460 649 L460 288 C460 153 408 83 307 83 C205 83 153 153 153 288 L153 649 C153 676 131 698 104 698 C76 698 54 676 54 649 L50 649 L50 649 Z " />
<glyph glyph-name="&amp;#xfa;" unicode="&#xfa;" horiz-adv-x="607" d="M50 649 L50 270 C50 87 137 -8 305 -8 C473 -8 559 87 559 270 L559 649 C559 676 537 698 510 698 C482 698 460 676 460 649 L460 288 C460 153 408 83 307 83 C205 83 153 153 153 288 L153 649 C153 676 131 698 104 698 C76 698 54 676 54 649 L50 649 L50 649 Z " />
<glyph glyph-name="&amp;#xfb;" unicode="&#xfb;" horiz-adv-x="607" d="M50 649 L50 270 C50 87 137 -8 305 -8 C473 -8 559 87 559 270 L559 649 C559 676 537 698 510 698 C482 698 460 676 460 649 L460 288 C460 153 408 83 307 83 C205 83 153 153 153 288 L153 649 C153 676 131 698 104 698 C76 698 54 676 54 649 L50 649 L50 649 Z " />
<glyph glyph-name="&amp;#xfc;" unicode="&#xfc;" horiz-adv-x="607" d="M50 649 L50 270 C50 87 137 -8 305 -8 C473 -8 559 87 559 270 L559 649 C559 676 537 698 510 698 C482 698 460 676 460 649 L460 288 C460 153 408 83 307 83 C205 83 153 153 153 288 L153 649 C153 676 131 698 104 698 C76 698 54 676 54 649 L50 649 L50 649 Z " />
<glyph glyph-name="v" unicode="v" horiz-adv-x="642" d="M64 652 L261 41 C268 20 294 1 316 1 L328 1 C350 1 375 20 382 41 L585 680 C589 691 591 698 591 698 C591 698 589 698 587 698 L507 697 C495 697 481 687 477 675 L470 653 L374 332 C358 276 282 276 265 331 L168 652 C167 655 154 698 154 699 L50 699 C49 699 48 697 48 696 C52 685 61 652 62 652 L64 652 L64 652 Z " />
<glyph glyph-name="w" unicode="w" horiz-adv-x="817" d="M50 690 C53 677 56 664 59 652 L186 46 C191 21 217 1 242 1 L246 1 C270 1 295 21 301 44 L354 262 C368 321 451 320 465 262 L516 44 C522 21 548 1 572 1 L575 1 C600 1 626 21 631 46 L761 657 L766 675 L769 687 C770 693 765 699 758 699 L675 699 C668 699 661 693 660 687 L657 675 C655 668 654 661 653 657 L611 434 C602 385 529 383 517 432 L465 653 C460 676 434 696 410 696 L405 697 C381 697 355 677 349 653 L264 283 C260 267 236 272 232 288 C209 410 186 531 164 652 L159 675 C156 688 143 698 131 698 L56 699 C51 699 48 694 49 690 L50 690 L50 690 Z " />
<glyph glyph-name="x" unicode="x" horiz-adv-x="624" d="M241 335 C180 235 118 136 56 36 C42 14 62 -1 88 -1 L111 -1 C126 -1 152 14 159 27 C201 94 243 160 285 227 C299 249 325 245 337 223 L440 44 C440 44 464 1 467 -3 L518 -3 C542 -3 555 20 543 41 C488 135 435 231 380 326 C372 341 374 369 383 383 C438 471 494 560 549 647 C556 660 565 673 572 686 C575 690 572 694 567 694 L497 694 C482 694 458 682 450 669 C413 609 375 549 338 489 C326 469 299 467 287 487 L195 648 L182 671 C175 682 154 694 141 694 L117 694 C92 694 78 673 90 652 C141 563 192 475 243 387 C251 372 249 348 240 334 L241 335 L241 335 Z " />
<glyph glyph-name="y" unicode="y" horiz-adv-x="630" d="M306 0 C333 0 355 22 355 49 L355 292 C355 296 358 313 361 317 C430 437 498 556 568 675 C576 689 581 698 581 698 C581 698 517 698 515 698 C499 698 473 683 465 669 L356 478 C333 436 281 436 258 478 L149 669 C141 683 115 698 99 698 L83 698 C59 698 44 678 56 658 C123 541 190 424 258 307 C260 303 258 296 258 292 L258 50 C258 23 280 1 307 1 L306 0 L306 0 Z " />
<glyph glyph-name="&amp;#xfd;" unicode="&#xfd;" horiz-adv-x="630" d="M306 0 C333 0 355 22 355 49 L355 292 C355 296 358 313 361 317 C430 437 498 556 568 675 C576 689 581 698 581 698 C581 698 517 698 515 698 C499 698 473 683 465 669 L356 478 C333 436 281 436 258 478 L149 669 C141 683 115 698 99 698 L83 698 C59 698 44 678 56 658 C123 541 190 424 258 307 C260 303 258 296 258 292 L258 50 C258 23 280 1 307 1 L306 0 L306 0 Z " />
<glyph glyph-name="&amp;#xff;" unicode="&#xff;" horiz-adv-x="630" d="M306 0 C333 0 355 22 355 49 L355 292 C355 296 358 313 361 317 C430 437 498 556 568 675 C576 689 581 698 581 698 C581 698 517 698 515 698 C499 698 473 683 465 669 L356 478 C333 436 281 436 258 478 L149 669 C141 683 115 698 99 698 L83 698 C59 698 44 678 56 658 C123 541 190 424 258 307 C260 303 258 296 258 292 L258 50 C258 23 280 1 307 1 L306 0 L306 0 Z " />
<glyph glyph-name="z" unicode="z" horiz-adv-x="626" d="M536 81 L286 81 C236 81 211 132 241 172 L566 602 C570 607 577 630 577 637 L577 658 C577 680 559 698 537 698 L106 698 C83 698 65 680 65 658 C65 635 83 617 106 617 L341 617 C391 617 416 566 386 526 L61 96 C57 91 50 68 50 61 L50 41 C50 18 68 0 91 0 L536 0 C558 0 576 18 576 41 C576 63 558 81 536 81 L536 81 Z " />
<glyph glyph-name="nbspace" unicode="&#xa0;" horiz-adv-x="311" d="" />
</font>
</svg>
